<?xml version="1.0" encoding="UTF-8"?>
<svg xmlns="http://www.w3.org/2000/svg" xmlns:xlink="http://www.w3.org/1999/xlink" width="432" height="252" viewBox="0 0 432 252">
<defs>
<clipPath id="clip-0">
<path clip-rule="nonzero" d="M 5.480469 5.480469 L 426.523438 5.480469 L 426.523438 246.523438 L 5.480469 246.523438 Z M 5.480469 5.480469 "/>
</clipPath>
<clipPath id="clip-1">
<path clip-rule="nonzero" d="M 5.480469 207 L 426.523438 207 L 426.523438 209 L 5.480469 209 Z M 5.480469 207 "/>
</clipPath>
<clipPath id="clip-2">
<path clip-rule="nonzero" d="M 5.480469 152 L 426.523438 152 L 426.523438 154 L 5.480469 154 Z M 5.480469 152 "/>
</clipPath>
<clipPath id="clip-3">
<path clip-rule="nonzero" d="M 5.480469 97 L 426.523438 97 L 426.523438 99 L 5.480469 99 Z M 5.480469 97 "/>
</clipPath>
<clipPath id="clip-4">
<path clip-rule="nonzero" d="M 5.480469 43 L 426.523438 43 L 426.523438 44 L 5.480469 44 Z M 5.480469 43 "/>
</clipPath>
<clipPath id="clip-5">
<path clip-rule="nonzero" d="M 72 5.480469 L 73 5.480469 L 73 246.523438 L 72 246.523438 Z M 72 5.480469 "/>
</clipPath>
<clipPath id="clip-6">
<path clip-rule="nonzero" d="M 167 5.480469 L 169 5.480469 L 169 246.523438 L 167 246.523438 Z M 167 5.480469 "/>
</clipPath>
<clipPath id="clip-7">
<path clip-rule="nonzero" d="M 263 5.480469 L 265 5.480469 L 265 246.523438 L 263 246.523438 Z M 263 5.480469 "/>
</clipPath>
<clipPath id="clip-8">
<path clip-rule="nonzero" d="M 359 5.480469 L 360 5.480469 L 360 246.523438 L 359 246.523438 Z M 359 5.480469 "/>
</clipPath>
<clipPath id="clip-9">
<path clip-rule="nonzero" d="M 5.480469 235 L 426.523438 235 L 426.523438 237 L 5.480469 237 Z M 5.480469 235 "/>
</clipPath>
<clipPath id="clip-10">
<path clip-rule="nonzero" d="M 5.480469 180 L 426.523438 180 L 426.523438 182 L 5.480469 182 Z M 5.480469 180 "/>
</clipPath>
<clipPath id="clip-11">
<path clip-rule="nonzero" d="M 5.480469 125 L 426.523438 125 L 426.523438 127 L 5.480469 127 Z M 5.480469 125 "/>
</clipPath>
<clipPath id="clip-12">
<path clip-rule="nonzero" d="M 5.480469 70 L 426.523438 70 L 426.523438 72 L 5.480469 72 Z M 5.480469 70 "/>
</clipPath>
<clipPath id="clip-13">
<path clip-rule="nonzero" d="M 5.480469 15 L 426.523438 15 L 426.523438 17 L 5.480469 17 Z M 5.480469 15 "/>
</clipPath>
<clipPath id="clip-14">
<path clip-rule="nonzero" d="M 24 5.480469 L 26 5.480469 L 26 246.523438 L 24 246.523438 Z M 24 5.480469 "/>
</clipPath>
<clipPath id="clip-15">
<path clip-rule="nonzero" d="M 119 5.480469 L 121 5.480469 L 121 246.523438 L 119 246.523438 Z M 119 5.480469 "/>
</clipPath>
<clipPath id="clip-16">
<path clip-rule="nonzero" d="M 215 5.480469 L 217 5.480469 L 217 246.523438 L 215 246.523438 Z M 215 5.480469 "/>
</clipPath>
<clipPath id="clip-17">
<path clip-rule="nonzero" d="M 311 5.480469 L 313 5.480469 L 313 246.523438 L 311 246.523438 Z M 311 5.480469 "/>
</clipPath>
<clipPath id="clip-18">
<path clip-rule="nonzero" d="M 406 5.480469 L 408 5.480469 L 408 246.523438 L 406 246.523438 Z M 406 5.480469 "/>
</clipPath>
<clipPath id="clip-19">
<path clip-rule="nonzero" d="M 214 5.480469 L 218 5.480469 L 218 246.523438 L 214 246.523438 Z M 214 5.480469 "/>
</clipPath>
</defs>
<rect x="-43.2" y="-25.2" width="518.4" height="302.4" fill="rgb(100%, 100%, 100%)" fill-opacity="1"/>
<rect x="-43.2" y="-25.2" width="518.4" height="302.4" fill="rgb(100%, 100%, 100%)" fill-opacity="1"/>
<path fill="none" stroke-width="1.066978" stroke-linecap="round" stroke-linejoin="round" stroke="rgb(100%, 100%, 100%)" stroke-opacity="1" stroke-miterlimit="10" d="M 0 252 L 432 252 L 432 0 L 0 0 Z M 0 252 "/>
<g clip-path="url(#clip-0)">
<path fill-rule="nonzero" fill="rgb(92.156863%, 92.156863%, 92.156863%)" fill-opacity="1" d="M 5.480469 246.519531 L 426.523438 246.519531 L 426.523438 5.476562 L 5.480469 5.476562 Z M 5.480469 246.519531 "/>
</g>
<g clip-path="url(#clip-1)">
<path fill="none" stroke-width="0.533489" stroke-linecap="butt" stroke-linejoin="round" stroke="rgb(100%, 100%, 100%)" stroke-opacity="1" stroke-miterlimit="10" d="M 5.480469 208.101562 L 426.519531 208.101562 "/>
</g>
<g clip-path="url(#clip-2)">
<path fill="none" stroke-width="0.533489" stroke-linecap="butt" stroke-linejoin="round" stroke="rgb(100%, 100%, 100%)" stroke-opacity="1" stroke-miterlimit="10" d="M 5.480469 153.171875 L 426.519531 153.171875 "/>
</g>
<g clip-path="url(#clip-3)">
<path fill="none" stroke-width="0.533489" stroke-linecap="butt" stroke-linejoin="round" stroke="rgb(100%, 100%, 100%)" stroke-opacity="1" stroke-miterlimit="10" d="M 5.480469 98.246094 L 426.519531 98.246094 "/>
</g>
<g clip-path="url(#clip-4)">
<path fill="none" stroke-width="0.533489" stroke-linecap="butt" stroke-linejoin="round" stroke="rgb(100%, 100%, 100%)" stroke-opacity="1" stroke-miterlimit="10" d="M 5.480469 43.320312 L 426.519531 43.320312 "/>
</g>
<g clip-path="url(#clip-5)">
<path fill="none" stroke-width="0.533489" stroke-linecap="butt" stroke-linejoin="round" stroke="rgb(100%, 100%, 100%)" stroke-opacity="1" stroke-miterlimit="10" d="M 72.464844 246.519531 L 72.464844 5.480469 "/>
</g>
<g clip-path="url(#clip-6)">
<path fill="none" stroke-width="0.533489" stroke-linecap="butt" stroke-linejoin="round" stroke="rgb(100%, 100%, 100%)" stroke-opacity="1" stroke-miterlimit="10" d="M 168.15625 246.519531 L 168.15625 5.480469 "/>
</g>
<g clip-path="url(#clip-7)">
<path fill="none" stroke-width="0.533489" stroke-linecap="butt" stroke-linejoin="round" stroke="rgb(100%, 100%, 100%)" stroke-opacity="1" stroke-miterlimit="10" d="M 263.84375 246.519531 L 263.84375 5.480469 "/>
</g>
<g clip-path="url(#clip-8)">
<path fill="none" stroke-width="0.533489" stroke-linecap="butt" stroke-linejoin="round" stroke="rgb(100%, 100%, 100%)" stroke-opacity="1" stroke-miterlimit="10" d="M 359.535156 246.519531 L 359.535156 5.480469 "/>
</g>
<g clip-path="url(#clip-9)">
<path fill="none" stroke-width="1.066978" stroke-linecap="butt" stroke-linejoin="round" stroke="rgb(100%, 100%, 100%)" stroke-opacity="1" stroke-miterlimit="10" d="M 5.480469 235.566406 L 426.519531 235.566406 "/>
</g>
<g clip-path="url(#clip-10)">
<path fill="none" stroke-width="1.066978" stroke-linecap="butt" stroke-linejoin="round" stroke="rgb(100%, 100%, 100%)" stroke-opacity="1" stroke-miterlimit="10" d="M 5.480469 180.636719 L 426.519531 180.636719 "/>
</g>
<g clip-path="url(#clip-11)">
<path fill="none" stroke-width="1.066978" stroke-linecap="butt" stroke-linejoin="round" stroke="rgb(100%, 100%, 100%)" stroke-opacity="1" stroke-miterlimit="10" d="M 5.480469 125.710938 L 426.519531 125.710938 "/>
</g>
<g clip-path="url(#clip-12)">
<path fill="none" stroke-width="1.066978" stroke-linecap="butt" stroke-linejoin="round" stroke="rgb(100%, 100%, 100%)" stroke-opacity="1" stroke-miterlimit="10" d="M 5.480469 70.78125 L 426.519531 70.78125 "/>
</g>
<g clip-path="url(#clip-13)">
<path fill="none" stroke-width="1.066978" stroke-linecap="butt" stroke-linejoin="round" stroke="rgb(100%, 100%, 100%)" stroke-opacity="1" stroke-miterlimit="10" d="M 5.480469 15.855469 L 426.519531 15.855469 "/>
</g>
<g clip-path="url(#clip-14)">
<path fill="none" stroke-width="1.066978" stroke-linecap="butt" stroke-linejoin="round" stroke="rgb(100%, 100%, 100%)" stroke-opacity="1" stroke-miterlimit="10" d="M 24.617188 246.519531 L 24.617188 5.480469 "/>
</g>
<g clip-path="url(#clip-15)">
<path fill="none" stroke-width="1.066978" stroke-linecap="butt" stroke-linejoin="round" stroke="rgb(100%, 100%, 100%)" stroke-opacity="1" stroke-miterlimit="10" d="M 120.308594 246.519531 L 120.308594 5.480469 "/>
</g>
<g clip-path="url(#clip-16)">
<path fill="none" stroke-width="1.066978" stroke-linecap="butt" stroke-linejoin="round" stroke="rgb(100%, 100%, 100%)" stroke-opacity="1" stroke-miterlimit="10" d="M 216 246.519531 L 216 5.480469 "/>
</g>
<g clip-path="url(#clip-17)">
<path fill="none" stroke-width="1.066978" stroke-linecap="butt" stroke-linejoin="round" stroke="rgb(100%, 100%, 100%)" stroke-opacity="1" stroke-miterlimit="10" d="M 311.691406 246.519531 L 311.691406 5.480469 "/>
</g>
<g clip-path="url(#clip-18)">
<path fill="none" stroke-width="1.066978" stroke-linecap="butt" stroke-linejoin="round" stroke="rgb(100%, 100%, 100%)" stroke-opacity="1" stroke-miterlimit="10" d="M 407.382812 246.519531 L 407.382812 5.480469 "/>
</g>
<path fill="none" stroke-width="3.200935" stroke-linecap="butt" stroke-linejoin="round" stroke="rgb(87.45098%, 66.666667%, 45.098039%)" stroke-opacity="1" stroke-miterlimit="10" d="M 24.617188 235.5625 L 36.101562 235.5625 L 43.757812 235.554688 L 47.582031 235.550781 L 51.410156 235.542969 L 55.238281 235.53125 L 59.066406 235.515625 L 62.894531 235.492188 L 66.722656 235.457031 L 70.550781 235.40625 L 74.378906 235.332031 L 78.203125 235.230469 L 82.03125 235.085938 L 85.859375 234.886719 L 89.6875 234.617188 L 93.515625 234.253906 L 97.34375 233.769531 L 101.171875 233.128906 L 105 232.296875 L 108.824219 231.21875 L 112.652344 229.839844 L 116.480469 228.105469 L 120.308594 225.9375 L 124.136719 223.265625 L 127.964844 220.003906 L 131.792969 216.078125 L 135.621094 211.40625 L 139.445312 205.910156 L 143.273438 199.523438 L 147.101562 192.199219 L 150.929688 183.90625 L 154.757812 174.640625 L 158.585938 164.425781 L 162.414062 153.324219 L 166.242188 141.4375 L 170.066406 128.902344 L 173.894531 115.902344 L 181.550781 89.410156 L 185.378906 76.445312 L 189.207031 64.050781 L 193.035156 52.53125 L 196.863281 42.183594 L 200.6875 33.285156 L 204.515625 26.078125 L 208.34375 20.773438 L 212.171875 17.527344 L 216 16.4375 L 219.828125 17.527344 L 223.65625 20.773438 L 227.484375 26.078125 L 231.3125 33.285156 L 235.136719 42.183594 L 238.964844 52.53125 L 242.792969 64.050781 L 246.621094 76.445312 L 250.449219 89.410156 L 258.105469 115.902344 L 261.933594 128.902344 L 265.757812 141.4375 L 269.585938 153.324219 L 273.414062 164.425781 L 277.242188 174.640625 L 281.070312 183.90625 L 284.898438 192.199219 L 288.726562 199.523438 L 292.554688 205.910156 L 296.378906 211.40625 L 300.207031 216.078125 L 304.035156 220.003906 L 307.863281 223.265625 L 311.691406 225.9375 L 315.519531 228.105469 L 319.347656 229.839844 L 323.175781 231.21875 L 327 232.296875 L 330.828125 233.128906 L 334.65625 233.769531 L 338.484375 234.253906 L 342.3125 234.617188 L 346.140625 234.886719 L 349.96875 235.085938 L 353.796875 235.230469 L 357.621094 235.332031 L 361.449219 235.40625 L 365.277344 235.457031 L 369.105469 235.492188 L 372.933594 235.515625 L 376.761719 235.53125 L 380.589844 235.542969 L 384.417969 235.550781 L 388.242188 235.554688 L 395.898438 235.5625 L 407.382812 235.5625 "/>
<g clip-path="url(#clip-19)">
<path fill="none" stroke-width="2.133957" stroke-linecap="butt" stroke-linejoin="round" stroke="rgb(87.45098%, 66.666667%, 45.098039%)" stroke-opacity="1" stroke-dasharray="8.535827 8.535827" stroke-miterlimit="10" d="M 216 246.519531 L 216 5.480469 "/>
</g>
</svg>
